inDegrees=no
num_controls=7
num_derivatives=13
num_iterations=120
num_multipliers=7
num_parameters=0
num_slacks=7
num_states=26
objective=4.289801
objective_accelerations=0.496416
objective_balance=0.042990
objective_effort=0.605298
objective_height=3.051649
objective_ligament=0.093448
solver_duration=1231.516324
status=Solve_Succeeded
success=true
DataType=double
version=3
OpenSimVersion=4.4-2022-07-23-0e9fedc
endheader
time	/jointset/ground_pelvis/pelvis_tilt/value	/jointset/ground_pelvis/pelvis_tx/value	/jointset/ground_pelvis/pelvis_ty/value	/jointset/hip_l/hip_flexion_l/value	/jointset/hip_l/hip_adduction_l/value	/jointset/hip_l/hip_rotation_l/value	/jointset/back/lumbar_extension/value	/jointset/patellofemoral_l/patellar_flexion_l/value	/jointset/knee_l/knee_flexion_l/value	/jointset/knee_l/knee_adduction_l/value	/jointset/knee_l/knee_rotation_l/value	/jointset/ankle_l/ankle_angle_l/value	/jointset/subtalar_l/subtalar_angle_l/value	/jointset/ground_pelvis/pelvis_tilt/speed	/jointset/ground_pelvis/pelvis_tx/speed	/jointset/ground_pelvis/pelvis_ty/speed	/jointset/hip_l/hip_flexion_l/speed	/jointset/hip_l/hip_adduction_l/speed	/jointset/hip_l/hip_rotation_l/speed	/jointset/back/lumbar_extension/speed	/jointset/patellofemoral_l/patellar_flexion_l/speed	/jointset/knee_l/knee_flexion_l/speed	/jointset/knee_l/knee_adduction_l/speed	/jointset/knee_l/knee_rotation_l/speed	/jointset/ankle_l/ankle_angle_l/speed	/jointset/subtalar_l/subtalar_angle_l/speed	/forceset/tau_hip_flexion_l	/forceset/tau_hip_adduction_l	/forceset/tau_hip_rotation_l	/forceset/tau_knee_flexion_l	/forceset/tau_ankle_angle_l	/forceset/tau_subtalar_angle_l	/forceset/tau_lumbar_extension	lambda_cid13_p0	lambda_cid13_p1	lambda_cid13_p2	lambda_cid13_p3	lambda_cid13_p4	lambda_cid13_p5	lambda_cid14_p0	/jointset/ground_pelvis/pelvis_tilt/accel	/jointset/ground_pelvis/pelvis_tx/accel	/jointset/ground_pelvis/pelvis_ty/accel	/jointset/hip_l/hip_flexion_l/accel	/jointset/hip_l/hip_adduction_l/accel	/jointset/hip_l/hip_rotation_l/accel	/jointset/back/lumbar_extension/accel	/jointset/patellofemoral_l/patellar_flexion_l/accel	/jointset/knee_l/knee_flexion_l/accel	/jointset/knee_l/knee_adduction_l/accel	/jointset/knee_l/knee_rotation_l/accel	/jointset/ankle_l/ankle_angle_l/accel	/jointset/subtalar_l/subtalar_angle_l/accel	gamma_cid13_p0	gamma_cid13_p1	gamma_cid13_p2	gamma_cid13_p3	gamma_cid13_p4	gamma_cid13_p5	gamma_cid14_p0
0	-0.03682245988288155	0.05667747052057008	0.9203415974439795	0.3085811930696054	-0.2956403739872891	-0.3016057348559594	-0.3879500408040475	0.249927658227118	0.249927658227084	-0.174532863859904	-0.1745314449016665	-0.0008036543073733089	0.0004376897980218104	0	0	0	0	0	0	0	0	0	0	0	0	0	0.08704541734858974	-0.05914300313633863	-0.02109268443545489	-0.2542096042095333	0.2055867617093535	-0.01533106736830797	-0.01332671707428388	23.7739264519306	0.07799883474191391	2.294785476214842	5.16368328107165	-603.5733339242034	-75.13577479934524	-23.19692568951502	-1.156565269654715	-2.230162651925928	-1.194127793242842	12.19835911804219	-0.9027123870254318	4.62688875507588	-7.941880498994545	13.47873472285373	13.478734722855	2.472306995285177	-0.07928007361963141	3.40186234152111	0.183787482112962	1.480744716532266e-08	3.834430396515938e-07	6.228661103352919e-08	-6.948685700020645e-09	2.28897424970232e-07	2.635672575262262e-08	3.118446806985907e-08
0.01	-0.03687547888643805	0.05656823002846602	0.9202832515990192	0.3091752780572109	-0.2956858680805449	-0.3013728944045584	-0.388345424733765	0.2505888961634024	0.250588896163439	-0.1744145857507898	-0.1745302224669536	-0.0006360600607173815	0.000445624787655193	-0.01054893471709307	-0.02164048167900166	-0.01162500219716315	0.1181302070272137	-0.009063445797254863	0.04633582220995598	-0.07843216464962029	0.1316439597001841	0.1316439597001867	0.0235042290661162	0.0002368189933394743	0.03349973734885286	0.001619236044399165	0.08164418281708309	-0.06692959493472742	-0.02062481561874923	-0.2521157817565804	0.202767147434211	-0.005411971237490983	-0.007481161801583727	23.10404869346801	-4.029532982208649	2.854785892176652	3.284147778277318	-607.1479919335242	-83.28737101971416	-23.20435087634134	-0.995841947121701	-2.099849801137857	-1.140015634281755	11.51732264403079	-0.9029317157569979	4.602099920298447	-7.697191256114594	12.91667622372051	12.91667622371999	2.266846698731454	0.07400930401655006	3.321172962589827	0.1557591238300241	-4.173046011572467e-08	3.664377306039834e-07	2.236304787514322e-07	4.748841796346996e-08	1.045426311897027e-08	-9.792167537394901e-08	1.428861372801957e-08
0.02	-0.03703234411197717	0.05624881294452527	0.9201099898918229	0.3109300593449177	-0.2958209508396994	-0.3006836615377758	-0.3895057916715928	0.2525484636227143	0.2525484636227397	-0.1740657921836186	-0.174526862558346	-0.0001340397343639531	0.0004707056293781448	-0.02076924440977028	-0.04203531836733756	-0.02298317244724416	0.2321392600132578	-0.01791773318172055	0.09127848307357631	-0.1529966016261642	0.259665904605165	0.2596659046051579	0.04610309159045003	0.0004274947148562871	0.06688521593861933	0.003429170417847219	0.07624294828538174	-0.07471618673331855	-0.02015694680200335	-0.2500219593038139	0.1999475331589225	0.004507124893067462	-0.001635606528874348	22.54023234975771	-8.15274943041128	3.41399009124027	1.201472402362878	-609.168089890038	-91.30296157104748	-23.22612151688349	-1.090840264772829	-1.981033653791627	-1.140761403826426	11.37412830980805	-0.8608807044680251	4.348256485806592	-7.16833496437999	12.75433176381328	12.75433176381206	2.291233686928118	-0.08850872798644867	3.379010589705056	0.2219271479227497	-9.8268367396772e-08	3.494324215563731e-07	3.849743464693352e-07	1.019255216269606e-07	-2.079888987322914e-07	-2.222000765005206e-07	-2.607240613819937e-09
0.03	-0.03728994730509948	0.05573101952995244	0.9198240225323407	0.3138054404399689	-0.2960431185502841	-0.2995534386566204	-0.3913927898973396	0.2557700433544943	0.2557700433545514	-0.1734952335320598	-0.1745228675375051	0.000700150981047343	0.0005148863971716911	-0.03068211261790392	-0.06138164874387314	-0.03420487871764171	0.3423192130191784	-0.02644757486216702	0.1345111833747096	-0.2238286087860333	0.3840153972777303	0.3840153972776842	0.06785904182627292	0.0003798079611433006	0.09982267437152885	0.005433988100645483	0.06835255577552249	-0.06755262387196045	-0.01913812405070009	-0.2432872955178608	0.1933627373556829	0.002784692721612293	0.005273015746104196	20.31897567347693	-7.101381243169343	3.344160332115427	1.648638843857578	-610.6085871002884	-88.05837786882385	-23.26112733319031	-0.9311282467519076	-1.890154751059884	-1.112104609307095	10.74725085599012	-0.8389157740576111	4.272499857905469	-6.954468383228081	12.18006193727246	12.18006193726733	2.095438861422641	0.03839997424631782	3.231580419916757	0.1937103115886959	-1.346916776973575e-07	3.241937796464564e-07	4.94527853805805e-07	1.383678052457452e-07	-3.676252294792567e-07	-3.081524153460917e-07	-1.401811005945842e-08
0.04	-0.03764460280982903	0.05502401840732192	0.9194259922360237	0.3177640854771241	-0.2963485606525258	-0.2979985441613364	-0.393970875152958	0.2602160787967046	0.2602160787967281	-0.1727115827442343	-0.1745190896592416	0.00185980967075613	0.0005799055884195996	-0.04017970674301809	-0.07987685997887153	-0.04539575981420101	0.448792048425312	-0.03457261151161467	0.1762128059013791	-0.2912140076035739	0.5045570466820775	0.5045570466820011	0.08872151884261965	0.000384066139799574	0.1319788107977718	0.007596855108655699	0.06046216326576691	-0.06038906101058419	-0.01811930129971899	-0.2365526317317639	0.1867779415524876	0.001062260550195226	0.01218163802111743	18.19463844293018	-6.06137229536738	3.26973320050406	1.89668984668085	-610.6431303117361	-84.68377742285166	-23.30781724163784	-1.007785448170182	-1.810809825483128	-1.134596369058778	10.63270478985042	-0.779919698268563	4.042040930912377	-6.479013295915024	11.99276311016973	11.99276311017025	2.112539043032455	-0.07811974151411158	3.222746188372879	0.2535370129652392	-1.707002540395829e-07	2.987853782960797e-07	6.030135186601835e-07	1.744390616471133e-07	-5.2604904824469e-07	-3.933145261033947e-07	-2.53158870330103e-08
0.05	-0.03809273068399591	0.05413641635072208	0.9189157969099672	0.3227700788094214	-0.2967332208579554	-0.2960348244175022	-0.3972058630948738	0.2658494758442656	0.2658494758442837	-0.1717238551399006	-0.1745156835000755	0.003337468632773521	0.0006674695233847143	-0.04938577133765366	-0.09749072236987881	-0.0566686400997882	0.5518156636056746	-0.04229611055443307	0.2162736816231662	-0.3552912968356544	0.6215276887611112	0.6215276887610821	0.1086372457808352	0.0003005647504640657	0.1634397937978992	0.009943178009472902	0.0543023263062198	-0.05915807481083913	-0.01737368472063518	-0.2333456151541384	0.1830193483581399	0.003195577158220444	0.01770927619174864	17.14226001798909	-6.806636670916959	3.392008312201055	1.325823888844375	-610.3727338050898	-85.25964244641987	-23.36420241850606	-0.8680086132301391	-1.713714918154096	-1.127540553700687	10.04852803229583	-0.7592032447806737	3.949415433693675	-6.298244147104923	11.460018801031	11.46001880103775	1.903191974630501	0.02713820420512735	3.090797837817175	0.2291506699430788	-1.974641891100707e-07	1.386461473716596e-07	6.903830387995361e-07	1.811280679995347e-07	-6.284289872339107e-07	-4.901903877413412e-07	-5.075177561393337e-08
